<svg width="512" height="512" viewBox="0 0 135.467 135.467" xmlns="http://www.w3.org/2000/svg"><path d="M66.72 17.81q7.284-1.366 12.292 3.187.455.91 0 2.276-1.366 3.642-.91 9.106.91 12.292 3.642 20.943 2.276-.91 5.008-2.277 2.732-1.365 5.008-1.82 3.642-.456 5.008.91.91 1.366-1.821 3.187-4.098 2.732-11.382 5.008 2.276 10.472 8.195 23.675 3.642-7.285 6.83-16.846.455-2.276 0-4.553-.456-1.365 0-1.82 2.731-1.367 8.65 4.097 0 1.82-1.366 3.642-1.366 1.821-2.277 3.642-3.187 8.195-9.105 16.846 8.65 15.935 18.211 17.756 2.277-1.821 5.008-8.195 1.366-3.642 1.821-3.187.456.91 0 5.008-.91 5.919.456 14.114 1.82 5.463-1.366 5.463-15.025-3.642-28.228-26.862-13.203 10.927-9.56 4.553 4.552-4.097 7.284-9.105Q81.744 73.354 78.1 60.15q-4.097 1.821-14.569 4.098-.455 4.553-.91 11.382 5.008-.456 8.195-3.187 1.366-1.366 2.276-1.366 4.553.455 8.195 4.553 0 .91-.91 2.276-1.821 3.187-2.277 6.83-.91 6.373-2.731 13.203-2.732 7.74-7.285 8.195-.91 0-1.366-2.277-1.366-4.097-4.097-7.74-2.277-3.186 3.187-1.365 3.187.91 3.642.455 2.732-3.642 2.732-16.846-.456-1.365-5.464 0-3.187.456-4.553.456-2.731 21.853-15.935 29.593-5.008 1.821-2.276-1.366 13.659-12.292 13.203-39.61-.455-3.642-1.82-7.74-.911-2.276 0-2.276.454-1.365 8.194 2.277 1.821-.455 4.098-1.366 4.553-.91 9.56-3.187-1.82-6.83-4.097-17.756-.455-3.642-.91-5.464-1.366-6.374-4.553-10.471-1.366-2.277-.91-3.642zm-33.692 4.552q5.008-1.82 10.472 5.009-.456 1.365-1.366 2.731-1.366 1.821-2.277 4.098 0 .455-1.82 4.553l-2.277 4.553q2.732 0 7.74-1.366 4.553-1.366 6.374-.91 3.642.91 4.097 2.276.456 1.365-2.276 1.82-8.65 2.277-18.212 2.277-15.48 25.04-18.666 22.764 11.837-19.122 18.666-40.065 1.366-3.187 0-6.374-.455-.91-.455-1.366zm68.748 6.374q1.821 2.732.91 5.92-1.82 2.73-4.097.91-3.642-2.277-9.56-8.195-3.643-3.643 2.276-3.187 6.829.91 10.471 4.552zm-56 28.228q2.732 0 3.642 1.366.911.91-.91 2.276-2.732 1.822-10.927 3.187 3.187 1.366 2.732 5.92-.456 1.82-.456 3.186 1.366-.455 3.643-1.366 2.731-1.366 4.553-1.366 2.731 0 3.187 1.366 0 1.821-2.277 3.187-3.187 1.366-7.74 2.732-1.366.455-1.82.455l-1.367 15.025q12.293-7.74 13.204-5.92.455.911-5.92 6.83l-7.284 7.285q-.91.91-2.276 3.187-2.732 4.097-4.098 3.642-2.276-1.366-2.731-7.74.455-.91 1.365-2.276 1.822-2.277 2.732-5.919.455-1.821.455-7.285.456-3.187.456-5.463-15.935 1.366-12.293-2.276 5.008-1.366 11.837-2.732V67.89q-.455-2.276-.91-3.187-4.098 0-5.919-1.366-.91-1.366 2.277-2.276 5.463-.91 12.292-3.187 3.643-.91 4.553-.91z" aria-label="铖" style="font-size:116.553px;font-family:FZKai-Z03;-inkscape-font-specification:'FZKai-Z03, Normal';fill:#268bd2;stroke-width:.291384"/></svg>